<?xml version="1.0" encoding="utf-8"?>
<!-- Generator: Adobe Illustrator 17.0.0, SVG Export Plug-In . SVG Version: 6.00 Build 0)  -->
<!DOCTYPE svg PUBLIC "-//W3C//DTD SVG 1.1//EN" "http://www.w3.org/Graphics/SVG/1.1/DTD/svg11.dtd" [
	<!ENTITY ns_extend "http://ns.adobe.com/Extensibility/1.0/">
	<!ENTITY ns_ai "http://ns.adobe.com/AdobeIllustrator/10.0/">
	<!ENTITY ns_graphs "http://ns.adobe.com/Graphs/1.0/">
	<!ENTITY ns_vars "http://ns.adobe.com/Variables/1.0/">
	<!ENTITY ns_imrep "http://ns.adobe.com/ImageReplacement/1.0/">
	<!ENTITY ns_sfw "http://ns.adobe.com/SaveForWeb/1.0/">
	<!ENTITY ns_custom "http://ns.adobe.com/GenericCustomNamespace/1.0/">
	<!ENTITY ns_adobe_xpath "http://ns.adobe.com/XPath/1.0/">
]>
<svg version="1.1" id="algorithm_icon_1_" xmlns:x="&ns_extend;" xmlns:i="&ns_ai;" xmlns:graph="&ns_graphs;"
	 xmlns="http://www.w3.org/2000/svg" xmlns:xlink="http://www.w3.org/1999/xlink" x="0px" y="0px" width="2282.995px"
	 height="2282.995px" viewBox="0.002 -50.498 2282.995 2282.995" enable-background="new 0.002 -50.498 2282.995 2282.995"
	 xml:space="preserve">
<metadata>
	<sfw  xmlns="&ns_sfw;">
		<slices></slices>
		<sliceSourceBounds  height="2180.2" width="2281.6" x="-843.3" y="-669.6" bottomLeftOrigin="true"></sliceSourceBounds>
	</sfw>
</metadata>
<g id="Prostokąt_9">
	<g>
		
			<rect x="387.719" y="1087.6" transform="matrix(-0.1476 0.989 -0.989 -0.1476 2406.0254 151.6044)" fill="#616161" width="1499.93" height="49.998"/>
	</g>
</g>
<g id="Prostokąt_9_kopia_2">
	<g>
		
			<rect x="298.088" y="1070.4" transform="matrix(-0.972 0.2349 -0.2349 -0.972 2490.0771 1894.1843)" fill="#616161" width="1668.268" height="49.999"/>
	</g>
</g>
<g id="Prostokąt_9_kopia">
	<g>
		
			<rect x="1115.998" y="339.035" transform="matrix(-0.4886 0.8725 -0.8725 -0.4886 2648.678 625.6053)" fill="#616161" width="50" height="1499.99"/>
	</g>
</g>
<g id="Prostokąt_9_kopia_3">
	<g>
		<polygon fill="#616161" points="1291.5,181.4 1260,220.2 2032.4,845.8 2063.8,807 		"/>
	</g>
</g>
<g id="Prostokąt_9_kopia_4">
	<g>
		<polygon fill="#616161" points="2094.6,721.2 1878.4,1691.3 1927.2,1702.2 2143.4,732 		"/>
	</g>
</g>
<g id="Prostokąt_9_kopia_5">
	<g>
		
			<rect x="1000.662" y="1729.586" transform="matrix(-0.8851 0.4655 -0.4655 -0.8851 3639.8538 2610.3843)" fill="#616161" width="993.946" height="50.002"/>
	</g>
</g>
<g id="Prostokąt_9_kopia_6">
	<g>
		
			<rect x="546.191" y="1138.493" transform="matrix(-0.6327 0.7744 -0.7744 -0.6327 2199.0291 2227.7756)" fill="#616161" width="50" height="993.802"/>
	</g>
</g>
<g id="Prostokąt_9_kopia_7">
	<g>
		
			<rect x="312.9" y="382.659" transform="matrix(-0.8846 0.4663 -0.4663 -0.8846 1716.2396 390.6692)" fill="#616161" width="993.776" height="49.999"/>
	</g>
</g>
<g id="Prostokąt_9_kopia_8">
	<g>
		<polygon fill="#616161" points="374.7,478.3 158.8,1449 207.6,1459.8 423.6,489.1 		"/>
	</g>
</g>
<g id="Elipsa_2">
	<g>
		<circle fill="#98C686" cx="1274.9" cy="200.9" r="200"/>
	</g>
</g>
<g id="Elipsa_2_kopia">
	<g>
		<circle fill="#CC7272" cx="1009.1" cy="1981.1" r="200"/>
	</g>
</g>
<g id="Elipsa_2_kopia_2">
	<g>
		<circle fill="#EAA94A" cx="1921.4" cy="1541" r="200"/>
	</g>
</g>
<g id="Elipsa_2_kopia_2_1_">
	<g>
		<circle fill="#81B3F3" cx="362.6" cy="641" r="200"/>
	</g>
</g>
<g id="Elipsa_2_kopia_3">
	<g>
		<circle fill="#FBF17D" cx="2082.3" cy="858.1" r="200"/>
	</g>
</g>
<g id="Elipsa_2_kopia_3_1_">
	<g>
		<circle fill="#A668C4" cx="200.7" cy="1323.9" r="200"/>
	</g>
</g>
</svg>
